<?xml version="1.0" encoding="UTF-8"?> <svg xmlns="http://www.w3.org/2000/svg" xmlns:xlink="http://www.w3.org/1999/xlink" viewBox="0 0 351.05 173.44"><defs><style>.cls-1{isolation:isolate;}.cls-2{fill:url(#New_Gradient_Swatch_2);}.cls-3,.cls-4,.cls-7,.cls-8,.cls-9{stroke-miterlimit:10;}.cls-12,.cls-13,.cls-16,.cls-17,.cls-18,.cls-19,.cls-20,.cls-21,.cls-22,.cls-23,.cls-24,.cls-25,.cls-26,.cls-27,.cls-28,.cls-29,.cls-3,.cls-30,.cls-31,.cls-32,.cls-33,.cls-34,.cls-35,.cls-36,.cls-37,.cls-38,.cls-39,.cls-4,.cls-44,.cls-45,.cls-46,.cls-47,.cls-48,.cls-49,.cls-50,.cls-51,.cls-52,.cls-53,.cls-54,.cls-55,.cls-56,.cls-57,.cls-58,.cls-59,.cls-60,.cls-61,.cls-62,.cls-63,.cls-64,.cls-65,.cls-66,.cls-67{mix-blend-mode:screen;}.cls-3{fill:url(#linear-gradient);stroke:url(#linear-gradient-2);}.cls-4{fill:url(#linear-gradient-3);stroke:url(#linear-gradient-4);}.cls-5{fill:#fff;}.cls-6{fill:url(#linear-gradient-5);}.cls-7,.cls-9{fill:#231f20;}.cls-7,.cls-8,.cls-9{stroke:#000;}.cls-7,.cls-8{stroke-width:0.2px;}.cls-9{stroke-width:0.5px;}.cls-10{fill:url(#linear-gradient-6);}.cls-11{fill:url(#linear-gradient-7);}.cls-12{fill:url(#radial-gradient);}.cls-13{fill:url(#radial-gradient-2);}.cls-14{fill:url(#linear-gradient-8);}.cls-15{fill:url(#radial-gradient-3);}.cls-16{fill:url(#linear-gradient-9);}.cls-17{fill:url(#linear-gradient-10);}.cls-18{fill:url(#linear-gradient-11);}.cls-19{fill:url(#linear-gradient-12);}.cls-20{fill:url(#linear-gradient-13);}.cls-21{fill:url(#linear-gradient-14);}.cls-22{fill:url(#linear-gradient-15);}.cls-23{fill:url(#linear-gradient-16);}.cls-24{fill:url(#linear-gradient-17);}.cls-25{fill:url(#linear-gradient-18);}.cls-26{fill:url(#linear-gradient-19);}.cls-27{fill:url(#linear-gradient-20);}.cls-28{fill:url(#linear-gradient-21);}.cls-29{fill:url(#linear-gradient-22);}.cls-30{fill:url(#linear-gradient-23);}.cls-31{fill:url(#linear-gradient-24);}.cls-32{fill:url(#linear-gradient-25);}.cls-33{fill:url(#linear-gradient-26);}.cls-34{fill:url(#linear-gradient-27);}.cls-35{fill:url(#linear-gradient-28);}.cls-36{fill:url(#linear-gradient-29);}.cls-37{fill:url(#linear-gradient-30);}.cls-38{fill:url(#linear-gradient-31);}.cls-39{fill:url(#linear-gradient-32);}.cls-40{fill:#818181;}.cls-40,.cls-41,.cls-68{mix-blend-mode:multiply;}.cls-41{fill:url(#radial-gradient-4);}.cls-42{fill:url(#linear-gradient-33);}.cls-43{fill:url(#radial-gradient-5);}.cls-44{fill:url(#linear-gradient-34);}.cls-45{fill:url(#linear-gradient-35);}.cls-46{fill:url(#linear-gradient-36);}.cls-47{fill:url(#linear-gradient-37);}.cls-48{fill:url(#linear-gradient-38);}.cls-49{fill:url(#linear-gradient-39);}.cls-50{fill:url(#linear-gradient-40);}.cls-51{fill:url(#linear-gradient-41);}.cls-52{fill:url(#linear-gradient-42);}.cls-53{fill:url(#linear-gradient-43);}.cls-54{fill:url(#linear-gradient-44);}.cls-55{fill:url(#linear-gradient-45);}.cls-56{fill:url(#linear-gradient-46);}.cls-57{fill:url(#linear-gradient-47);}.cls-58{fill:url(#linear-gradient-48);}.cls-59{fill:url(#linear-gradient-49);}.cls-60{fill:url(#linear-gradient-50);}.cls-61{fill:url(#linear-gradient-51);}.cls-62{fill:url(#linear-gradient-52);}.cls-63{fill:url(#linear-gradient-53);}.cls-64{fill:url(#linear-gradient-54);}.cls-65{fill:url(#linear-gradient-55);}.cls-66{fill:url(#linear-gradient-56);}.cls-67{fill:url(#linear-gradient-57);}.cls-68{fill:url(#radial-gradient-6);}</style><linearGradient id="New_Gradient_Swatch_2" x1="129.21" y1="65.64" x2="283.53" y2="65.64" gradientUnits="userSpaceOnUse"><stop offset="0" stop-color="#333"></stop><stop offset="0.01" stop-color="#474747"></stop><stop offset="0.04" stop-color="#7b7b7b"></stop><stop offset="0.08" stop-color="#cecece"></stop><stop offset="0.1" stop-color="#fff"></stop><stop offset="0.15" stop-color="#ebebeb"></stop><stop offset="0.24" stop-color="#b7b7b7"></stop><stop offset="0.25" stop-color="#b4b4b4"></stop><stop offset="0.3" stop-color="#c8c8c8"></stop><stop offset="0.39" stop-color="#fcfcfc"></stop><stop offset="0.4" stop-color="#fff"></stop><stop offset="0.48" stop-color="#ebebeb"></stop><stop offset="0.5" stop-color="#e5e5e5"></stop><stop offset="0.58" stop-color="#f9f9f9"></stop><stop offset="0.6" stop-color="#fff"></stop><stop offset="0.65" stop-color="#ebebeb"></stop><stop offset="0.74" stop-color="#b7b7b7"></stop><stop offset="0.75" stop-color="#b4b4b4"></stop><stop offset="0.8" stop-color="#c8c8c8"></stop><stop offset="0.9" stop-color="#f6f6f6"></stop><stop offset="0.92" stop-color="#d8d8d8"></stop><stop offset="0.96" stop-color="#8b8b8b"></stop><stop offset="1" stop-color="#333"></stop></linearGradient><linearGradient id="linear-gradient" x1="205.04" y1="82.69" x2="129.21" y2="82.69" gradientUnits="userSpaceOnUse"><stop offset="0" stop-color="#fff"></stop><stop offset="0.01" stop-color="#f3f3f3"></stop><stop offset="0.05" stop-color="#b9baba"></stop><stop offset="0.09" stop-color="#898a8a"></stop><stop offset="0.13" stop-color="#646565"></stop><stop offset="0.17" stop-color="#494a4a"></stop><stop offset="0.2" stop-color="#393a3a"></stop><stop offset="0.23" stop-color="#333434"></stop><stop offset="0.38" stop-color="#8c8e90"></stop><stop offset="1"></stop></linearGradient><linearGradient id="linear-gradient-2" x1="152.69" y1="104.88" x2="183.51" y2="51.51" gradientUnits="userSpaceOnUse"><stop offset="0" stop-color="#010101"></stop><stop offset="0.18" stop-color="#040404"></stop><stop offset="0.32" stop-color="#0d0d0d"></stop><stop offset="0.43" stop-color="#1c1c1d"></stop><stop offset="0.54" stop-color="#313233"></stop><stop offset="0.64" stop-color="#4d4e50"></stop><stop offset="0.73" stop-color="#6e7073"></stop><stop offset="0.78" stop-color="#828487"></stop></linearGradient><linearGradient id="linear-gradient-3" x1="206.78" y1="82.69" x2="282.6" y2="82.69" xlink:href="#linear-gradient"></linearGradient><linearGradient id="linear-gradient-4" x1="259.12" y1="104.88" x2="228.31" y2="51.51" xlink:href="#linear-gradient-2"></linearGradient><linearGradient id="linear-gradient-5" x1="158.16" y1="119.86" x2="254.05" y2="119.86" gradientUnits="userSpaceOnUse"><stop offset="0.07" stop-color="#333"></stop><stop offset="0.11" stop-color="#474747"></stop><stop offset="0.18" stop-color="#7b7b7b"></stop><stop offset="0.25" stop-color="#b4b4b4"></stop><stop offset="0.3" stop-color="#c8c8c8"></stop><stop offset="0.39" stop-color="#fcfcfc"></stop><stop offset="0.4" stop-color="#fff"></stop><stop offset="0.48" stop-color="#ebebeb"></stop><stop offset="0.5" stop-color="#e5e5e5"></stop><stop offset="0.58" stop-color="#f9f9f9"></stop><stop offset="0.6" stop-color="#fff"></stop><stop offset="0.65" stop-color="#ebebeb"></stop><stop offset="0.74" stop-color="#b7b7b7"></stop><stop offset="0.75" stop-color="#b4b4b4"></stop><stop offset="0.79" stop-color="#a0a0a0"></stop><stop offset="0.86" stop-color="#6c6c6c"></stop><stop offset="0.93" stop-color="#333"></stop></linearGradient><linearGradient id="linear-gradient-6" x1="45.54" y1="139.47" x2="125.72" y2="139.47" gradientUnits="userSpaceOnUse"><stop offset="0.25" stop-color="#b4b4b4"></stop><stop offset="0.3" stop-color="#c8c8c8"></stop><stop offset="0.39" stop-color="#fcfcfc"></stop><stop offset="0.4" stop-color="#fff"></stop><stop offset="0.48" stop-color="#ebebeb"></stop><stop offset="0.5" stop-color="#e5e5e5"></stop><stop offset="0.66" stop-color="#d1d1d1"></stop><stop offset="0.84" stop-color="#b4b4b4"></stop></linearGradient><linearGradient id="linear-gradient-7" x1="284.72" y1="138.47" x2="364.9" y2="138.47" xlink:href="#linear-gradient-6"></linearGradient><radialGradient id="radial-gradient" cx="273.43" cy="111.11" r="23.09" gradientUnits="userSpaceOnUse"><stop offset="0" stop-color="#fff"></stop><stop offset="0.16" stop-color="#c1c1c1"></stop><stop offset="0.33" stop-color="#878787"></stop><stop offset="0.49" stop-color="#575757"></stop><stop offset="0.64" stop-color="#323232"></stop><stop offset="0.78" stop-color="#171717"></stop><stop offset="0.9" stop-color="#070707"></stop><stop offset="1" stop-color="#010101"></stop></radialGradient><radialGradient id="radial-gradient-2" cx="137.5" cy="110.66" r="23.09" xlink:href="#radial-gradient"></radialGradient><linearGradient id="linear-gradient-8" x1="210.38" y1="111.04" x2="248.77" y2="111.04" gradientTransform="translate(43.91)" gradientUnits="userSpaceOnUse"><stop offset="0" stop-color="#989898"></stop><stop offset="0.04" stop-color="#acacac"></stop><stop offset="0.12" stop-color="#e0e0e0"></stop><stop offset="0.17" stop-color="#fff"></stop><stop offset="0.24" stop-color="#ebebeb"></stop><stop offset="0.38" stop-color="#c0bfbf"></stop><stop offset="0.57" stop-color="#d3d3d3"></stop><stop offset="0.72" stop-color="#e5e5e5"></stop><stop offset="0.77" stop-color="#d1d1d1"></stop><stop offset="0.89" stop-color="#9d9d9d"></stop><stop offset="1" stop-color="#676767"></stop></linearGradient><radialGradient id="radial-gradient-3" cx="310.2" cy="88.89" r="18.8" gradientTransform="translate(-2.09 32.07) scale(0.89)" gradientUnits="userSpaceOnUse"><stop offset="0.55" stop-color="#fff"></stop><stop offset="1" stop-color="#818181"></stop></radialGradient><linearGradient id="linear-gradient-9" x1="222.61" y1="111.04" x2="224.01" y2="111.04" gradientTransform="translate(43.91)" gradientUnits="userSpaceOnUse"><stop offset="0" stop-color="#4e4e4e"></stop><stop offset="1" stop-color="#010101"></stop></linearGradient><linearGradient id="linear-gradient-10" x1="224.01" y1="111.04" x2="225.4" y2="111.04" xlink:href="#linear-gradient-9"></linearGradient><linearGradient id="linear-gradient-11" x1="221.22" y1="111.04" x2="222.61" y2="111.04" xlink:href="#linear-gradient-9"></linearGradient><linearGradient id="linear-gradient-12" x1="225.4" y1="111.04" x2="226.79" y2="111.04" xlink:href="#linear-gradient-9"></linearGradient><linearGradient id="linear-gradient-13" x1="226.79" y1="111.04" x2="228.18" y2="111.04" xlink:href="#linear-gradient-9"></linearGradient><linearGradient id="linear-gradient-14" x1="219.83" y1="111.04" x2="221.22" y2="111.04" xlink:href="#linear-gradient-9"></linearGradient><linearGradient id="linear-gradient-15" x1="212.87" y1="111.04" x2="214.26" y2="111.04" xlink:href="#linear-gradient-9"></linearGradient><linearGradient id="linear-gradient-16" x1="214.26" y1="111.04" x2="215.65" y2="111.04" xlink:href="#linear-gradient-9"></linearGradient><linearGradient id="linear-gradient-17" x1="228.18" y1="111.04" x2="229.57" y2="111.04" xlink:href="#linear-gradient-9"></linearGradient><linearGradient id="linear-gradient-18" x1="218.44" y1="111.04" x2="219.83" y2="111.04" xlink:href="#linear-gradient-9"></linearGradient><linearGradient id="linear-gradient-19" x1="217.05" y1="111.04" x2="218.44" y2="111.04" xlink:href="#linear-gradient-9"></linearGradient><linearGradient id="linear-gradient-20" x1="215.65" y1="111.04" x2="217.05" y2="111.04" xlink:href="#linear-gradient-9"></linearGradient><linearGradient id="linear-gradient-21" x1="240.71" y1="111.04" x2="242.1" y2="111.04" xlink:href="#linear-gradient-9"></linearGradient><linearGradient id="linear-gradient-22" x1="239.32" y1="111.04" x2="240.71" y2="111.04" xlink:href="#linear-gradient-9"></linearGradient><linearGradient id="linear-gradient-23" x1="242.1" y1="111.04" x2="243.49" y2="111.04" xlink:href="#linear-gradient-9"></linearGradient><linearGradient id="linear-gradient-24" x1="243.49" y1="111.04" x2="244.89" y2="111.04" xlink:href="#linear-gradient-9"></linearGradient><linearGradient id="linear-gradient-25" x1="244.89" y1="111.04" x2="246.28" y2="111.04" xlink:href="#linear-gradient-9"></linearGradient><linearGradient id="linear-gradient-26" x1="237.93" y1="111.04" x2="239.32" y2="111.04" xlink:href="#linear-gradient-9"></linearGradient><linearGradient id="linear-gradient-27" x1="233.75" y1="111.04" x2="235.14" y2="111.04" xlink:href="#linear-gradient-9"></linearGradient><linearGradient id="linear-gradient-28" x1="230.97" y1="111.04" x2="232.36" y2="111.04" xlink:href="#linear-gradient-9"></linearGradient><linearGradient id="linear-gradient-29" x1="232.36" y1="111.04" x2="233.75" y2="111.04" xlink:href="#linear-gradient-9"></linearGradient><linearGradient id="linear-gradient-30" x1="236.53" y1="111.04" x2="237.93" y2="111.04" xlink:href="#linear-gradient-9"></linearGradient><linearGradient id="linear-gradient-31" x1="229.57" y1="111.04" x2="230.97" y2="111.04" xlink:href="#linear-gradient-9"></linearGradient><linearGradient id="linear-gradient-32" x1="235.14" y1="111.04" x2="236.53" y2="111.04" xlink:href="#linear-gradient-9"></linearGradient><radialGradient id="radial-gradient-4" cx="229.57" cy="111.04" r="19.19" gradientTransform="translate(43.91)" gradientUnits="userSpaceOnUse"><stop offset="0.78" stop-color="#fff"></stop><stop offset="0.83" stop-color="#fcfcfc"></stop><stop offset="0.87" stop-color="#f4f4f4"></stop><stop offset="0.9" stop-color="#e6e6e6"></stop><stop offset="0.92" stop-color="#d1d1d1"></stop><stop offset="0.94" stop-color="#b7b7b7"></stop><stop offset="0.96" stop-color="#979797"></stop><stop offset="0.98" stop-color="#717171"></stop><stop offset="1" stop-color="#4e4e4e"></stop></radialGradient><linearGradient id="linear-gradient-33" x1="74.22" y1="111.19" x2="112.61" y2="111.19" xlink:href="#linear-gradient-8"></linearGradient><radialGradient id="radial-gradient-5" cx="156.93" cy="89.05" r="18.8" xlink:href="#radial-gradient-3"></radialGradient><linearGradient id="linear-gradient-34" x1="86.45" y1="111.19" x2="87.84" y2="111.19" xlink:href="#linear-gradient-9"></linearGradient><linearGradient id="linear-gradient-35" x1="87.84" y1="111.19" x2="89.24" y2="111.19" xlink:href="#linear-gradient-9"></linearGradient><linearGradient id="linear-gradient-36" x1="85.06" y1="111.19" x2="86.45" y2="111.19" xlink:href="#linear-gradient-9"></linearGradient><linearGradient id="linear-gradient-37" x1="89.24" y1="111.19" x2="90.63" y2="111.19" xlink:href="#linear-gradient-9"></linearGradient><linearGradient id="linear-gradient-38" x1="90.63" y1="111.19" x2="92.02" y2="111.19" xlink:href="#linear-gradient-9"></linearGradient><linearGradient id="linear-gradient-39" x1="83.67" y1="111.19" x2="85.06" y2="111.19" xlink:href="#linear-gradient-9"></linearGradient><linearGradient id="linear-gradient-40" x1="76.71" y1="111.19" x2="78.1" y2="111.19" xlink:href="#linear-gradient-9"></linearGradient><linearGradient id="linear-gradient-41" x1="78.1" y1="111.19" x2="79.49" y2="111.19" xlink:href="#linear-gradient-9"></linearGradient><linearGradient id="linear-gradient-42" x1="92.02" y1="111.19" x2="93.41" y2="111.19" xlink:href="#linear-gradient-9"></linearGradient><linearGradient id="linear-gradient-43" x1="82.28" y1="111.19" x2="83.67" y2="111.19" xlink:href="#linear-gradient-9"></linearGradient><linearGradient id="linear-gradient-44" x1="80.88" y1="111.19" x2="82.28" y2="111.19" xlink:href="#linear-gradient-9"></linearGradient><linearGradient id="linear-gradient-45" x1="79.49" y1="111.19" x2="80.88" y2="111.19" xlink:href="#linear-gradient-9"></linearGradient><linearGradient id="linear-gradient-46" x1="104.55" y1="111.19" x2="105.94" y2="111.19" xlink:href="#linear-gradient-9"></linearGradient><linearGradient id="linear-gradient-47" x1="103.16" y1="111.19" x2="104.55" y2="111.19" xlink:href="#linear-gradient-9"></linearGradient><linearGradient id="linear-gradient-48" x1="105.94" y1="111.19" x2="107.33" y2="111.19" xlink:href="#linear-gradient-9"></linearGradient><linearGradient id="linear-gradient-49" x1="107.33" y1="111.19" x2="108.73" y2="111.19" xlink:href="#linear-gradient-9"></linearGradient><linearGradient id="linear-gradient-50" x1="108.73" y1="111.19" x2="110.12" y2="111.19" xlink:href="#linear-gradient-9"></linearGradient><linearGradient id="linear-gradient-51" x1="101.77" y1="111.19" x2="103.16" y2="111.19" xlink:href="#linear-gradient-9"></linearGradient><linearGradient id="linear-gradient-52" x1="97.59" y1="111.19" x2="98.98" y2="111.19" xlink:href="#linear-gradient-9"></linearGradient><linearGradient id="linear-gradient-53" x1="94.8" y1="111.19" x2="96.2" y2="111.19" xlink:href="#linear-gradient-9"></linearGradient><linearGradient id="linear-gradient-54" x1="96.2" y1="111.19" x2="97.59" y2="111.19" xlink:href="#linear-gradient-9"></linearGradient><linearGradient id="linear-gradient-55" x1="100.37" y1="111.19" x2="101.77" y2="111.19" xlink:href="#linear-gradient-9"></linearGradient><linearGradient id="linear-gradient-56" x1="93.41" y1="111.19" x2="94.8" y2="111.19" xlink:href="#linear-gradient-9"></linearGradient><linearGradient id="linear-gradient-57" x1="98.98" y1="111.19" x2="100.37" y2="111.19" xlink:href="#linear-gradient-9"></linearGradient><radialGradient id="radial-gradient-6" cx="93.41" cy="111.19" r="19.19" xlink:href="#radial-gradient-4"></radialGradient></defs><title>AACA Logo clipped</title><g class="cls-1"><g id="Layer_1" data-name="Layer 1"><path d="M381.19,138.36c0-60.5-78.58-109.55-175.53-109.55S30.14,77.86,30.14,138.36c0,23.84,12.22,45.9,33,63.88L345.38,202l3.13,0c20.57-17.94,32.68-39.91,32.68-63.65" transform="translate(-30.14 -28.81)"></path><path class="cls-2" d="M283.53,86S239.39,59.5,205.45,59.5s-76.24,25.89-76.24,25.89,4.66-26.22,7.57-29.83c4.25-2.51,65.76-10.24,68.41-10.24s70,7.46,74,10c2.1,3.34,4.35,30.67,4.35,30.67" transform="translate(-30.14 -28.81)"></path><path class="cls-3" d="M161.84,101.25c-1-1.22-11.21-12-25-12a26.36,26.36,0,0,0-7.66,1.14c0-3.54,43-26.23,69.48-26.23a36.44,36.44,0,0,1,6.35.52c0,14.32-17.16,23.74-24.68,25.26-9.65,2-17.75,0-18.52,11.34" transform="translate(-30.14 -28.81)"></path><path class="cls-4" d="M250,101.25c-.77-11.34-8.87-9.39-18.52-11.34-7.52-1.52-24.68-10.94-24.68-25.26a36.41,36.41,0,0,1,6.34-.52c26.46,0,69.48,22.69,69.48,26.23a26.31,26.31,0,0,0-7.66-1.14c-13.76,0-23.94,10.81-25,12" transform="translate(-30.14 -28.81)"></path><line class="cls-5" x1="206.83" y1="120.22" x2="206.83" y2="120.22"></line><line class="cls-5" x1="205.32" y1="122.15" x2="205.32" y2="122.15"></line><line class="cls-5" x1="205.32" y1="122.15" x2="205.32" y2="122.15"></line><line class="cls-5" x1="205.32" y1="122.15" x2="205.32" y2="122.15"></line><line class="cls-5" x1="205.32" y1="122.15" x2="205.32" y2="122.15"></line><line class="cls-5" x1="205.31" y1="122.13" x2="205.31" y2="122.13"></line><line class="cls-5" x1="205.31" y1="122.13" x2="205.31" y2="122.13"></line><line class="cls-5" x1="217.29" y1="105.05" x2="217.29" y2="105.05"></line><line class="cls-5" x1="211.94" y1="69.47" x2="211.94" y2="69.47"></line><line class="cls-5" x1="214.64" y1="74.77" x2="214.64" y2="74.77"></line><line class="cls-5" x1="222.78" y1="99.99" x2="222.78" y2="99.99"></line><line class="cls-5" x1="223.04" y1="99.31" x2="223.04" y2="99.31"></line><line class="cls-5" x1="138.91" y1="115.06" x2="138.91" y2="115.06"></line><path class="cls-5" d="M168.7,143.13h0" transform="translate(-30.14 -28.81)"></path><path class="cls-6" d="M234.46,153h1.2l.1,0a.43.43,0,0,0,.15-.08.45.45,0,0,0,.15-.14l.05-.08c3.07-5,5.63-8.81,7.76-11.8l.11-.16a76.62,76.62,0,0,1,5.77-7.3,20.27,20.27,0,0,1,2.28-2.19l.9-.59.06,0,1.06-.77-.85-.73-.57-.57s-1.35-.86-3.33-4.59A35.73,35.73,0,0,1,245.36,107c0-1.09,0-2.21.12-3.37l0-.5L245,103a5,5,0,0,1-1.27-.53,2.15,2.15,0,0,1-.59-.5,2.38,2.38,0,0,1-.44-1c-.07-.3-.12-.64-.19-1a3.92,3.92,0,0,0-.74-1.75,4.69,4.69,0,0,0-2.2-1.45c-5-1.79-11.93-3.19-18.31-4.67-3.18-.74-6.22-1.49-8.78-2.32a20.21,20.21,0,0,1-5.9-2.72l-.39-.31-.38.32a20.39,20.39,0,0,1-6.28,3,102.35,102.35,0,0,1-10.21,2.64l-.59.13-3.44.72c-5,1.06-10,2.08-13.8,3.31a5.44,5.44,0,0,0-1.49.71,3.38,3.38,0,0,0-.83.81l-.39.57-.25.63s0,.22,0,.26c-.05.38-.09.72-.13,1a2.46,2.46,0,0,1-.39,1.17,2.24,2.24,0,0,1-.52.48,4.1,4.1,0,0,1-1,.46l-.42.15v.44c0,.47.09,1.07.16,1.87s.15,1.76.15,2.9a28.39,28.39,0,0,1-1.42,8.72,44,44,0,0,1-6.51,12.39l-.3.42.35.37,0,0,.12.13.82.93a92.79,92.79,0,0,1,12.3,18.9l.28.63c.28.56.56,1.14.83,1.72l.17.35h.39c4.07,0,30.36.05,47.41.05Z" transform="translate(-30.14 -28.81)"></path><path class="cls-7" d="M233.38,151.18a9.37,9.37,0,0,0,1.4-.09l.11,0a.86.86,0,0,1-.1.16h-.11c-1.54,0-7,0-14,0-16.34,0-41.3-.05-46.36-.05a.37.37,0,0,1-.05-.11l.85,0,.71,0s19.74-1.22,27.78-1.22,29.36,1.23,29.36,1.23h.45" transform="translate(-30.14 -28.81)"></path><path class="cls-8" d="M240.92,106.39a7.43,7.43,0,0,0,2.56-.38l0,3.19a6.19,6.19,0,0,0-3-.68s-25-1.09-35.86-1.09-33.84,1.08-33.84,1.08a9.26,9.26,0,0,0-2.7.54l-.11-3a5.43,5.43,0,0,0,2.17.34h.64s24.27-1.24,33.9-1.24,34.38,1.22,34.38,1.22Z" transform="translate(-30.14 -28.81)"></path><path class="cls-8" d="M240.55,111.36s-26.17-1.25-35.8-1.25-33.9,1.23-33.9,1.23c-.23,0-.44,0-.64,0a5.52,5.52,0,0,1-2.16-.34l-.45,3.08a9,9,0,0,1,2.87-.61s23.2-1.08,34.21-1.08,36.25,1.09,36.25,1.09a5.58,5.58,0,0,1,3.15.8l-.45-3.39a6.81,6.81,0,0,1-2.72.45Z" transform="translate(-30.14 -28.81)"></path><path class="cls-8" d="M240.93,116.34s-26.46-1.26-36.19-1.26-34.27,1.25-34.27,1.25h-.63a4.29,4.29,0,0,1-2.61-.59l-.95,3.07a10.09,10.09,0,0,1,2.14-.35s24.64-1.08,36.21-1.08S243,118.48,243,118.48a8.19,8.19,0,0,1,2.21.35l-.84-3.18c-.64.62-2.3.69-3,.69Z" transform="translate(-30.14 -28.81)"></path><path class="cls-8" d="M243,121.31s-28.07-1.26-38.29-1.26-36.27,1.25-36.27,1.25l-.58,0a4.91,4.91,0,0,1-2.37-.45l-1.43,3a10.14,10.14,0,0,1,2.3-.4s26.08-1.09,38.23-1.09,40.5,1.11,40.5,1.11a8,8,0,0,1,2.12.31l-1.27-2.88a4.28,4.28,0,0,1-2,.45Z" transform="translate(-30.14 -28.81)"></path><path class="cls-8" d="M245.07,126.29S215.38,125,204.64,125s-38.31,1.26-38.31,1.26h-.56a3.91,3.91,0,0,1-2.7-.68l-1.92,3,1.6-.13s28.58-1.1,41.74-1.1,44.19,1.11,44.19,1.11a15.41,15.41,0,0,1,1.57.17,29.43,29.43,0,0,1-2-2.9,5.94,5.94,0,0,1-2.89.58Z" transform="translate(-30.14 -28.81)"></path><path class="cls-8" d="M248.94,131.27c.05,0,.21,0,.17,0-1.33,1.34-2.71,3-2.71,3a5.28,5.28,0,0,0-3.23-.86s-27.31-1.1-39.1-1.1-36.9,1.08-36.9,1.08a7.84,7.84,0,0,0-3.17.79l-2.29-2.93h1S192.93,130,204.56,130s44.12,1.28,44.12,1.28Z" transform="translate(-30.14 -28.81)"></path><path class="cls-8" d="M240.13,141.23a9.91,9.91,0,0,0,1.12-.06l-2.08,3.06a5.15,5.15,0,0,0-3.13-.88s-22.44-1.08-32.33-1.08-30.49,1.07-30.49,1.07a8.17,8.17,0,0,0-2.84.66l-1.69-2.87a7.37,7.37,0,0,0,1.25.09h.65S194.67,140,204.23,140s35.53,1.25,35.53,1.25Z" transform="translate(-30.14 -28.81)"></path><path class="cls-8" d="M243.5,136.25a9.85,9.85,0,0,0,1.4-.09l-2.17,2.91a6.18,6.18,0,0,0-3-.69s-24.77-1.09-35.59-1.09-33.58,1.08-33.58,1.08a7.91,7.91,0,0,0-3.15.78l-1.94-2.88-.06-.09a9.15,9.15,0,0,0,1.14.07l.59,0s26.56-1.24,37-1.24,39,1.25,39,1.25Z" transform="translate(-30.14 -28.81)"></path><path class="cls-8" d="M172.56,146.2c.21,0,.43,0,.66,0,0,0,21.81-1.23,30.55-1.23S236,146.2,236,146.2h.41a9.86,9.86,0,0,0,1.5-.11l-1.95,3-.06,0a5.28,5.28,0,0,0-3-.78s-20.32-1.07-29.42-1.07-27.72,1.05-27.72,1.05a8.69,8.69,0,0,0-2.76.63l-1.45-2.78Z" transform="translate(-30.14 -28.81)"></path><path class="cls-8" d="M238.44,101.16a6.68,6.68,0,0,0,2.34-.35l.61,1a7.41,7.41,0,0,0,1,1.3l1,1.1a5,5,0,0,1-.66-.29,8.72,8.72,0,0,0-2.23-.35s-25-1.08-35.86-1.08-33.84,1.07-33.84,1.07a11,11,0,0,0-2.19.36,3.66,3.66,0,0,0,1.52-3c-.05-.44,1,.23,1.77.23l.61,0s22.8-1.24,31.86-1.24,31.76,1.15,31.76,1.15Z" transform="translate(-30.14 -28.81)"></path><path class="cls-9" d="M216.33,92.57c-3.6-.23-7.73-.44-10.3-.44-2.37,0-5.85.24-9,.45l.06,0c1-.28,2-.58,3-.89a22.7,22.7,0,0,0,6.2-2.91,23,23,0,0,0,5.8,2.59c1.37.44,2.85.86,4.41,1.27" transform="translate(-30.14 -28.81)"></path><path class="cls-8" d="M229,95.52l.59.14a85.67,85.67,0,0,1,9.15,2.56,4.65,4.65,0,0,1,.54.22l-.12,0c-.31,0-.66-.08-1-.1,0,0-23.46-1.08-33.72-1.08s-31.8,1.07-31.8,1.07l-.29,0h0c4.1-1.33,4.57-1.3,10.22-2.49l2.71-.44S212.79,94.12,229,95.52Z" transform="translate(-30.14 -28.81)"></path><path class="cls-10" d="M45.54,162.65v-.53c0-5,1.32-44.11,43.22-45.82,21.34,0,31.39,13.21,37,15.64-1,.66-4.7.46-9.63,5.32,3.58-4.93,4.64-5.59,4.64-5.59h0s-12-13.12-36.72-13.12c-34.67,0-38.47,44.1-38.47,44.1" transform="translate(-30.14 -28.81)"></path><path class="cls-11" d="M364.89,161.65s-3.8-44.1-38.46-44.1c-24.68,0-36.72,13.12-36.72,13.12h0s1.06.66,4.64,5.59c-4.94-4.86-8.63-4.66-9.63-5.32,5.57-2.43,15.61-15.65,37-15.65,41.8,1.72,43.22,40.63,43.22,45.79,0,.37,0,.57,0,.57" transform="translate(-30.14 -28.81)"></path><path class="cls-12" d="M296.52,111.11A23.09,23.09,0,1,1,273.43,88,23.09,23.09,0,0,1,296.52,111.11Z" transform="translate(-30.14 -28.81)"></path><path class="cls-13" d="M160.47,108.3a23.09,23.09,0,1,1-20.61-20.61A23.09,23.09,0,0,1,160.47,108.3Z" transform="translate(-30.14 -28.81)"></path><path class="cls-5" d="M70.1,178.2c-.29.82-1.93,5.84-2.08,6.53,0,.23-.09.56-.09.73,0,.46.36.72,1,.72h1.4c.21,0,.3.07.3.23v.76c0,.23-.09.3-.24.3-.42,0-1.63-.1-3.39-.1-2.17,0-2.82.1-3.24.1-.15,0-.21-.07-.21-.26v-.8a.22.22,0,0,1,.24-.23h1c.89,0,1.31-.46,1.72-1.51.21-.53,2.38-6.64,3.25-9.34.2-.66,2.61-7.75,2.88-8.64a1.47,1.47,0,0,0,0-1.13.92.92,0,0,1-.21-.42.32.32,0,0,1,.27-.3,6,6,0,0,0,2.47-1.65c.15-.17.24-.3.38-.3s.24.2.33.56c.57,2.08,2.89,9.47,3.45,11.58.69,2.57,2.62,8.71,3,9.67a2.2,2.2,0,0,0,2,1.48h1a.21.21,0,0,1,.24.23v.83c0,.16-.09.23-.3.23-.54,0-1.16-.1-3.57-.1s-3.51.1-4.19.1c-.15,0-.24-.1-.24-.3v-.76c0-.19.09-.23.27-.23h.74c.83,0,1.1-.33.89-1.25-.24-1.19-1.45-5.41-1.87-6.73Zm7-1.19c-.27-1-2.67-9.24-2.82-9.73-.09-.23-.15-.46-.24-.46s-.24.23-.33.49c-.15.43-3,8.88-3.18,9.7Z" transform="translate(-30.14 -28.81)"></path><path class="cls-5" d="M92.19,178.2c-.29.82-1.93,5.84-2.08,6.53,0,.23-.09.56-.09.73,0,.46.36.72,1,.72h1.4c.21,0,.3.07.3.23v.76c0,.23-.09.3-.24.3-.41,0-1.63-.1-3.39-.1-2.17,0-2.82.1-3.24.1-.15,0-.21-.07-.21-.26v-.8a.22.22,0,0,1,.24-.23h1c.89,0,1.31-.46,1.73-1.51.2-.53,2.37-6.64,3.24-9.34.21-.66,2.61-7.75,2.88-8.64a1.47,1.47,0,0,0,0-1.13.92.92,0,0,1-.21-.42.32.32,0,0,1,.27-.3,6,6,0,0,0,2.47-1.65c.15-.17.24-.3.39-.3s.23.2.32.56c.57,2.08,2.89,9.47,3.45,11.58.69,2.57,2.62,8.71,3,9.67a2.21,2.21,0,0,0,2,1.48h1a.21.21,0,0,1,.24.23v.83c0,.16-.09.23-.3.23-.53,0-1.16-.1-3.57-.1s-3.51.1-4.19.1c-.15,0-.24-.1-.24-.3v-.76c0-.19.09-.23.27-.23h.74c.83,0,1.1-.33.89-1.25-.23-1.19-1.45-5.41-1.87-6.73Zm7-1.19c-.26-1-2.67-9.24-2.82-9.73-.09-.23-.15-.46-.24-.46s-.24.23-.33.49c-.15.43-3,8.88-3.18,9.7Z" transform="translate(-30.14 -28.81)"></path><path class="cls-5" d="M111.13,184.83c-2.14-2.24-3.18-6.07-3.18-9.24a13.3,13.3,0,0,1,3-8.74,9.86,9.86,0,0,1,7.43-3.33,11.5,11.5,0,0,1,6,1.81c.38.27.53.23.59,0l.24-1c.06-.2.12-.2.39-.2s.32.06.32.53c0,.62.6,5.47.75,6.4,0,.16,0,.29-.12.33l-.45.13c-.15,0-.21,0-.3-.27a13.18,13.18,0,0,0-2.31-4.09,6.62,6.62,0,0,0-5.18-2.54c-5.32,0-7.46,5.25-7.43,10.07a14.09,14.09,0,0,0,2.85,8.47,6.31,6.31,0,0,0,5.71,2.77,8.87,8.87,0,0,0,7.35-4.19c.09-.16.15-.19.23-.09l.39.33c.09.06.15.13.06.29-1.78,2.87-4.67,5.54-8.86,5.54A9.83,9.83,0,0,1,111.13,184.83Z" transform="translate(-30.14 -28.81)"></path><path class="cls-5" d="M134.33,178.2c-.3.82-1.94,5.84-2.09,6.53,0,.23-.09.56-.09.73,0,.46.36.72,1,.72h1.39c.21,0,.3.07.3.23v.76c0,.23-.09.3-.24.3-.41,0-1.63-.1-3.39-.1-2.17,0-2.82.1-3.24.1-.15,0-.21-.07-.21-.26v-.8a.22.22,0,0,1,.24-.23h1c.89,0,1.31-.46,1.73-1.51.21-.53,2.38-6.64,3.24-9.34.21-.66,2.62-7.75,2.88-8.64a1.47,1.47,0,0,0,0-1.13.92.92,0,0,1-.21-.42.32.32,0,0,1,.27-.3,6,6,0,0,0,2.47-1.65c.15-.17.24-.3.39-.3s.24.2.32.56c.57,2.08,2.89,9.47,3.45,11.58.69,2.57,2.62,8.71,3,9.67a2.21,2.21,0,0,0,2,1.48h1a.21.21,0,0,1,.24.23v.83c0,.16-.09.23-.3.23-.53,0-1.16-.1-3.57-.1s-3.51.1-4.19.1c-.15,0-.24-.1-.24-.3v-.76c0-.19.09-.23.27-.23h.74c.84,0,1.1-.33.9-1.25-.24-1.19-1.46-5.41-1.88-6.73Zm7-1.19c-.27-1-2.68-9.24-2.83-9.73-.09-.23-.15-.46-.24-.46s-.24.23-.33.49c-.14.43-3,8.88-3.18,9.7Z" transform="translate(-30.14 -28.81)"></path><path class="cls-5" d="M171.94,182.09c.42-.49,3.39-8.38,3.63-8.81s3.45-8.21,3.54-8.87c.06-.36.38-.4.68-.4,4,0,5-.1,5.29-.1.15,0,.18.1.18.24v.75c0,.2,0,.3-.24.3h-1.3c-.9,0-1,.59-1,1.35,0,1-.08,5.68-.08,7.89v2.31c0,1.65.08,7,.08,7.65,0,1.25.27,1.78,1,1.78h1.75c.18,0,.21.1.21.23v.76c0,.2,0,.3-.27.3s-.89-.1-4.16-.1c-2.74,0-3.9.1-4.28.1-.21,0-.24-.1-.24-.3v-.76c0-.16,0-.23.24-.23h2c.5,0,.77-.2.83-1.19,0-.39.06-6.13.06-8.57v-2.11c0-2.18,0-8.05-.09-8.35h-.06c-.3.43-4.52,10.82-4.67,11.15s-3.48,8.81-3.6,9.11-.35.79-.59.79-.33-.27-.45-.6l-4-11c-.57-1.52-3.27-8.91-3.69-9.3-.12.46-.18,8.81-.18,9.2s0,7.36.06,8.51c.15,1.88.42,2.41,1.37,2.41h1.49c.17,0,.2.1.2.23v.83c0,.13,0,.23-.26.23s-1.13-.1-3.6-.1-3.57.1-3.84.1-.27,0-.27-.3v-.79c0-.1,0-.2.18-.2h1.58c1.13,0,1.4-.86,1.58-2,.35-2.34.44-10.78.44-11.38s0-5.44,0-6.4c0-.76,0-1.22-1.22-1.22h-1.81c-.18,0-.21-.1-.21-.23v-.86c0-.1,0-.2.21-.2s1.1.1,3.63.1c1.39,0,2.17-.1,2.52-.1a.69.69,0,0,1,.78.57Z" transform="translate(-30.14 -28.81)"></path><path class="cls-5" d="M193.61,187.17a5.86,5.86,0,0,1-3.54-4.42,38.84,38.84,0,0,1-.47-8v-7.86c0-1.15-.21-1.68-1.13-1.68h-1.4c-.18,0-.21-.06-.21-.3v-.72c0-.2,0-.27.27-.27s1.75.1,4.07.1,3.75-.1,4.08-.1.27.07.27.2V165c0,.17,0,.23-.24.23h-1.49a1.4,1.4,0,0,0-1.43,1.35c0,.3-.06,2.61-.06,4.29V173c0,1.75.12,5.94.15,7a8.64,8.64,0,0,0,1,4.19,5.35,5.35,0,0,0,4.73,2.38,6,6,0,0,0,4.46-1.82c1.16-1.38,1.55-3.36,1.55-5.8V171.9c0-2.51-.06-4.42-.15-5.25s-.56-1.45-1.34-1.45h-1.3c-.18,0-.21-.1-.21-.26v-.79c0-.17,0-.24.21-.24s1.66.1,3.65.1,3-.1,3.27-.1.3.14.3.24v.72c0,.2,0,.33-.18.33H207.2c-1.1,0-1.19.92-1.28,1.32s0,5,0,5.48-.06,6.23-.15,7.52c-.18,2.7-.84,4.78-2.5,6.37a7.48,7.48,0,0,1-5.59,2A10.11,10.11,0,0,1,193.61,187.17Z" transform="translate(-30.14 -28.81)"></path><path class="cls-5" d="M212.76,186.15c-.36-.3-.54-.4-.68-.4s-.3.23-.48.56-.33.4-.54.4-.32-.16-.26-.53c.12-.82.41-5,.5-6,0-.2.09-.2.21-.2l.45,0c.12,0,.17.06.17.26a7,7,0,0,0,1.08,3.83,4.84,4.84,0,0,0,4.16,2.44,4,4,0,0,0,4-4.19c0-3.4-2.2-4.65-4.58-5.58a11.14,11.14,0,0,1-4.34-2.67,6.9,6.9,0,0,1-1.49-4.82,6.54,6.54,0,0,1,1.85-4.22,5.57,5.57,0,0,1,4.16-1.58,7.9,7.9,0,0,1,3.51.82c.27.17.42.14.57,0l.38-.4a.55.55,0,0,1,.39-.19c.15,0,.24.26.24.56,0,1.15.38,4.52.41,5.24,0,.17,0,.23-.14.27l-.36.1c-.09,0-.15,0-.18-.1a8.32,8.32,0,0,0-1.84-3.67,4,4,0,0,0-3.25-1.41,3.57,3.57,0,0,0-3.59,3.86,4.26,4.26,0,0,0,.92,2.87,9.22,9.22,0,0,0,3.39,2c2,.72,3.72,1.28,4.79,2.73a6.94,6.94,0,0,1,1.3,4.49c0,3.89-2.14,7.22-6.06,7.22A6.89,6.89,0,0,1,212.76,186.15Z" transform="translate(-30.14 -28.81)"></path><path class="cls-5" d="M232.18,174.74c.23,0,3.42-.14,3.77-.2.86-.17,1.1-.43,1.37-1.45a8.52,8.52,0,0,0,.24-1.62c0-.17.09-.23.21-.23l.74,0c.15,0,.21.13.18.27-.09.56-.09,3.26-.09,3.76,0,1.15.12,2.73.18,3.43,0,.16-.06.23-.18.26l-.65.1c-.15,0-.21-.07-.24-.3-.06-.43-.24-1.19-.33-1.55A1.46,1.46,0,0,0,236.1,176a38.37,38.37,0,0,0-3.92-.17v2.05c0,1.78.06,5,.06,5.64,0,1.71.77,2.37,1.69,2.57a11.26,11.26,0,0,0,2.2.23c.51,0,2,0,2.62-.1a5.46,5.46,0,0,0,2.59-1.15,30.18,30.18,0,0,0,2.43-3.47c.09-.16.18-.29.36-.19l.48.29c.15.1.15.2.06.46L243.09,187a.64.64,0,0,1-.65.5l-2.59-.07c-1.79,0-4.67,0-9.31,0-1.1,0-1.93,0-2.53,0s-1,.07-1.28.07-.26-.07-.26-.23v-.89c0-.13.08-.17.29-.17H228c1.37,0,1.49-.23,1.49-1.45v-11c0-2.74-.06-6.86-.09-7.19-.12-1.06-.42-1.29-1.52-1.29h-1.07c-.15,0-.23,0-.23-.23v-.89c0-.1.05-.17.2-.17.66,0,1.7.1,3.66.1h1.31l8.83,0c.48,0,1-.07,1.19-.07a.22.22,0,0,1,.24.17l1.52,5.31c0,.13,0,.23-.09.3l-.45.26c-.09.07-.21,0-.24-.1a27,27,0,0,0-3-3.76,4.34,4.34,0,0,0-2.26-.89l-5.29-.13Z" transform="translate(-30.14 -28.81)"></path><path class="cls-5" d="M252.6,187.17a5.86,5.86,0,0,1-3.54-4.42,38.84,38.84,0,0,1-.47-8v-7.86c0-1.15-.21-1.68-1.13-1.68h-1.4c-.18,0-.21-.06-.21-.3v-.72c0-.2,0-.27.27-.27s1.75.1,4.07.1,3.75-.1,4.08-.1.26.07.26.2V165c0,.17,0,.23-.23.23h-1.49a1.4,1.4,0,0,0-1.43,1.35c0,.3-.06,2.61-.06,4.29V173c0,1.75.12,5.94.15,7a8.64,8.64,0,0,0,.95,4.19,5.35,5.35,0,0,0,4.73,2.38,6,6,0,0,0,4.46-1.82c1.16-1.38,1.55-3.36,1.55-5.8V171.9c0-2.51-.06-4.42-.15-5.25s-.56-1.45-1.34-1.45h-1.31c-.17,0-.2-.1-.2-.26v-.79c0-.17,0-.24.2-.24s1.67.1,3.66.1,3-.1,3.27-.1.3.14.3.24v.72c0,.2,0,.33-.18.33h-1.22c-1.1,0-1.19.92-1.28,1.32s-.06,5-.06,5.48-.06,6.23-.14,7.52c-.18,2.7-.84,4.78-2.5,6.37a7.48,7.48,0,0,1-5.59,2A10.11,10.11,0,0,1,252.6,187.17Z" transform="translate(-30.14 -28.81)"></path><path class="cls-5" d="M282.28,182.09c.41-.49,3.39-8.38,3.62-8.81s3.45-8.21,3.54-8.87c.06-.36.39-.4.69-.4,3.95,0,5-.1,5.29-.1.15,0,.18.1.18.24v.75c0,.2,0,.3-.24.3h-1.31c-.89,0-1,.59-1,1.35,0,1-.09,5.68-.09,7.89v2.31c0,1.65.09,7,.09,7.65,0,1.25.27,1.78,1,1.78h1.76c.18,0,.21.1.21.23v.76c0,.2,0,.3-.27.3s-.89-.1-4.17-.1c-2.73,0-3.89.1-4.28.1-.21,0-.24-.1-.24-.3v-.76c0-.16,0-.23.24-.23h2c.51,0,.78-.2.84-1.19,0-.39.06-6.13.06-8.57v-2.11c0-2.18,0-8.05-.09-8.35h-.06c-.3.43-4.52,10.82-4.67,11.15s-3.48,8.81-3.6,9.11-.36.79-.59.79-.33-.27-.45-.6l-4-11c-.57-1.52-3.28-8.91-3.69-9.3-.12.46-.18,8.81-.18,9.2s0,7.36.06,8.51c.15,1.88.41,2.41,1.37,2.41h1.48c.18,0,.21.1.21.23v.83c0,.13,0,.23-.27.23s-1.13-.1-3.59-.1-3.57.1-3.84.1-.27,0-.27-.3v-.79c0-.1,0-.2.18-.2h1.58c1.13,0,1.39-.86,1.57-2,.36-2.34.45-10.78.45-11.38s0-5.44,0-6.4c0-.76,0-1.22-1.22-1.22h-1.81c-.18,0-.21-.1-.21-.23v-.86c0-.1,0-.2.21-.2s1.1.1,3.62.1c1.4,0,2.17-.1,2.53-.1a.68.68,0,0,1,.77.57Z" transform="translate(-30.14 -28.81)"></path><path class="cls-5" d="M308.68,173.55c0-.79-.09-6.73-.12-7.23-.06-.79-.36-1.12-1.49-1.12h-1.72c-.15,0-.24-.06-.24-.2v-.89a.19.19,0,0,1,.21-.2c.35,0,1.87.1,4.64.1s3.59-.1,4-.1c.15,0,.21.1.21.24V165c0,.17-.09.23-.24.23h-1.4c-.59,0-1,.27-1,.92,0,.33-.09,7.63-.09,8v2.54c0,.33.09,7.95.09,8.31,0,1,.45,1.19,1.4,1.19h1.22a.21.21,0,0,1,.24.23v.86c0,.13-.09.2-.27.2-.36,0-1.55-.1-4.13-.1-2.83,0-4.11.1-4.44.1-.14,0-.23-.07-.23-.2v-.89c0-.13.09-.2.23-.2h1.67c.59,0,1.22-.1,1.34-1,.06-.5.15-7.63.15-9.37Z" transform="translate(-30.14 -28.81)"></path><path class="cls-5" d="M328.87,185.59c0,.53.26.69.65.69h1c.27,0,.33.1.33.3v.53c0,.23-.06.36-.24.36s-1.13-.1-2.82-.1c-1.52,0-2.47.1-2.68.1s-.24-.1-.24-.36v-.53c0-.23.09-.3.39-.3h.86c.33,0,.57-.16.6-.76,0-.85.06-1.91.06-2.77V178.4c0-1.32,0-2.28-.87-3a3,3,0,0,0-2.17-.6,3.36,3.36,0,0,0-2.41,1.29,3.5,3.5,0,0,0-.68,2.24v6.83c0,.89.09,1.09.71,1.09h.75c.23,0,.29.1.29.33v.56c0,.2-.06.3-.2.3s-1-.1-2.59-.1-2.47.1-2.65.1-.21-.1-.21-.3v-.59c0-.2.06-.3.3-.3h.86c.39,0,.6-.1.6-.66V177.9a2,2,0,0,0-1.22-1.94l-.24-.14c-.21-.1-.24-.19-.24-.29v-.17c0-.16.12-.26.27-.33l2.56-1.58a1.5,1.5,0,0,1,.53-.23c.15,0,.21.13.24.39l.21,2h.06a5.82,5.82,0,0,1,4.07-2.41,4.28,4.28,0,0,1,2.53.72,5,5,0,0,1,1.64,3.14Z" transform="translate(-30.14 -28.81)"></path><path class="cls-5" d="M334.63,179.39a10,10,0,0,0,1.52,5,3.67,3.67,0,0,0,3.24,1.68,3.88,3.88,0,0,0,3.27-1.41.14.14,0,0,1,.24,0l.3.32c.12.14.15.24,0,.43a6.63,6.63,0,0,1-4.79,2.35,5.22,5.22,0,0,1-4.61-2.31,7.37,7.37,0,0,1-1.34-4.49c0-3.86,2.44-7.75,6.37-7.75,3.09,0,4,2,4,2.67a1.06,1.06,0,0,1-1.1,1.15c-.68,0-1.19-.42-1.64-1.32-.65-1.35-1.27-1.45-2-1.45C336.45,174.27,334.63,176,334.63,179.39Z" transform="translate(-30.14 -28.81)"></path><path class="cls-5" d="M345.6,185.82a1.76,1.76,0,1,1,3.51.13,1.69,1.69,0,0,1-1.66,1.82A1.81,1.81,0,0,1,345.6,185.82Z" transform="translate(-30.14 -28.81)"></path><path class="cls-14" d="M273.49,91.85A19.19,19.19,0,1,1,254.29,111,19.21,19.21,0,0,1,273.49,91.85Z" transform="translate(-30.14 -28.81)"></path><path class="cls-15" d="M290.19,111a16.71,16.71,0,1,1-16.7-16.7A16.71,16.71,0,0,1,290.19,111Z" transform="translate(-30.14 -28.81)"></path><path class="cls-16" d="M266.53,95.87v30.34a13,13,0,0,0,1.39.56V95.31C267.44,95.48,267,95.66,266.53,95.87Z" transform="translate(-30.14 -28.81)"></path><path class="cls-17" d="M267.92,95.31v31.46a13.16,13.16,0,0,0,1.39.43V94.88C268.84,95,268.37,95.15,267.92,95.31Z" transform="translate(-30.14 -28.81)"></path><path class="cls-18" d="M265.13,96.59v28.9c.46.26.92.5,1.4.72V95.87C266.05,96.09,265.59,96.33,265.13,96.59Z" transform="translate(-30.14 -28.81)"></path><path class="cls-19" d="M269.31,94.88V127.2a13.19,13.19,0,0,0,1.39.29V94.59C270.23,94.67,269.77,94.77,269.31,94.88Z" transform="translate(-30.14 -28.81)"></path><path class="cls-20" d="M270.7,94.59v32.9a12.88,12.88,0,0,0,1.39.18V94.41C271.62,94.45,271.16,94.51,270.7,94.59Z" transform="translate(-30.14 -28.81)"></path><path class="cls-21" d="M263.74,97.49v27.1c.45.32.91.62,1.39.9V96.59C264.65,96.87,264.19,97.17,263.74,97.49Z" transform="translate(-30.14 -28.81)"></path><path class="cls-22" d="M256.78,111a16.69,16.69,0,0,0,1.39,6.67V104.37A16.69,16.69,0,0,0,256.78,111Z" transform="translate(-30.14 -28.81)"></path><path class="cls-23" d="M258.17,104.37v13.34a16.73,16.73,0,0,0,1.4,2.56V101.81A16.73,16.73,0,0,0,258.17,104.37Z" transform="translate(-30.14 -28.81)"></path><path class="cls-24" d="M272.09,94.41v33.26c.46,0,.93.08,1.4.08V94.34C273,94.34,272.55,94.37,272.09,94.41Z" transform="translate(-30.14 -28.81)"></path><path class="cls-25" d="M262.35,98.61v24.86c.44.39.91.77,1.39,1.12V97.49C263.26,97.84,262.79,98.22,262.35,98.61Z" transform="translate(-30.14 -28.81)"></path><path class="cls-26" d="M261,100v22a15.42,15.42,0,0,0,1.39,1.41V98.61A16.8,16.8,0,0,0,261,100Z" transform="translate(-30.14 -28.81)"></path><path class="cls-27" d="M259.57,101.81v18.46a16.15,16.15,0,0,0,1.39,1.79V100A17.14,17.14,0,0,0,259.57,101.81Z" transform="translate(-30.14 -28.81)"></path><path class="cls-28" d="M284.62,98.61v24.86a15.42,15.42,0,0,0,1.39-1.41V100A16.8,16.8,0,0,0,284.62,98.61Z" transform="translate(-30.14 -28.81)"></path><path class="cls-29" d="M283.23,97.49v27.1a17,17,0,0,0,1.39-1.12V98.61A17,17,0,0,0,283.23,97.49Z" transform="translate(-30.14 -28.81)"></path><path class="cls-30" d="M286,100v22a16,16,0,0,0,1.4-1.79V101.81A16,16,0,0,0,286,100Z" transform="translate(-30.14 -28.81)"></path><path class="cls-31" d="M287.41,101.81v18.46a17.58,17.58,0,0,0,1.39-2.56V104.37A17.58,17.58,0,0,0,287.41,101.81Z" transform="translate(-30.14 -28.81)"></path><path class="cls-32" d="M288.8,117.71a16.7,16.7,0,0,0,0-13.34Z" transform="translate(-30.14 -28.81)"></path><path class="cls-33" d="M281.84,96.59v28.9c.48-.28.94-.58,1.39-.9V97.49C282.78,97.17,282.32,96.87,281.84,96.59Z" transform="translate(-30.14 -28.81)"></path><path class="cls-34" d="M277.66,94.88V127.2a13.16,13.16,0,0,0,1.39-.43V95.31C278.6,95.15,278.13,95,277.66,94.88Z" transform="translate(-30.14 -28.81)"></path><path class="cls-35" d="M274.88,94.41v33.26a12.88,12.88,0,0,0,1.39-.18V94.59C275.81,94.51,275.35,94.45,274.88,94.41Z" transform="translate(-30.14 -28.81)"></path><path class="cls-36" d="M276.27,94.59v32.9a13.19,13.19,0,0,0,1.39-.29V94.88C277.2,94.77,276.74,94.67,276.27,94.59Z" transform="translate(-30.14 -28.81)"></path><path class="cls-37" d="M280.45,95.87v30.34c.47-.22.94-.46,1.39-.72V96.59C281.39,96.33,280.92,96.09,280.45,95.87Z" transform="translate(-30.14 -28.81)"></path><path class="cls-38" d="M273.49,94.34v33.41c.47,0,.93,0,1.39-.08V94.41C274.42,94.37,274,94.34,273.49,94.34Z" transform="translate(-30.14 -28.81)"></path><path class="cls-39" d="M279.05,95.31v31.46a14.08,14.08,0,0,0,1.4-.56V95.87C280,95.66,279.53,95.48,279.05,95.31Z" transform="translate(-30.14 -28.81)"></path><path class="cls-40" d="M273.49,127.75A16.71,16.71,0,1,1,290.19,111,16.73,16.73,0,0,1,273.49,127.75Zm0-33A16.29,16.29,0,1,0,289.78,111,16.31,16.31,0,0,0,273.49,94.75Z" transform="translate(-30.14 -28.81)"></path><path class="cls-41" d="M273.49,91.85A19.19,19.19,0,1,0,292.68,111,19.22,19.22,0,0,0,273.49,91.85Zm0,35.9A16.71,16.71,0,1,1,290.19,111,16.71,16.71,0,0,1,273.49,127.75Z" transform="translate(-30.14 -28.81)"></path><path class="cls-42" d="M137.32,92a19.2,19.2,0,1,1-19.19,19.2A19.22,19.22,0,0,1,137.32,92Z" transform="translate(-30.14 -28.81)"></path><path class="cls-43" d="M154,111.19a16.71,16.71,0,1,1-16.71-16.71A16.71,16.71,0,0,1,154,111.19Z" transform="translate(-30.14 -28.81)"></path><path class="cls-44" d="M130.36,96v30.34c.46.21.92.39,1.4.56V95.46A14.08,14.08,0,0,0,130.36,96Z" transform="translate(-30.14 -28.81)"></path><path class="cls-45" d="M131.76,95.46v31.46c.45.16.92.3,1.39.43V95A13.16,13.16,0,0,0,131.76,95.46Z" transform="translate(-30.14 -28.81)"></path><path class="cls-46" d="M129,96.74v28.9c.45.26.92.5,1.39.72V96C129.89,96.24,129.42,96.48,129,96.74Z" transform="translate(-30.14 -28.81)"></path><path class="cls-47" d="M133.15,95v32.32c.46.11.92.21,1.39.29V94.74A13.19,13.19,0,0,0,133.15,95Z" transform="translate(-30.14 -28.81)"></path><path class="cls-48" d="M134.54,94.74v32.9c.46.08.92.14,1.39.18V94.55C135.46,94.59,135,94.66,134.54,94.74Z" transform="translate(-30.14 -28.81)"></path><path class="cls-49" d="M127.58,97.64v27.1c.45.32.91.62,1.39.9V96.74C128.49,97,128,97.32,127.58,97.64Z" transform="translate(-30.14 -28.81)"></path><path class="cls-50" d="M120.62,111.19a16.69,16.69,0,0,0,1.39,6.67V104.52A16.69,16.69,0,0,0,120.62,111.19Z" transform="translate(-30.14 -28.81)"></path><path class="cls-51" d="M122,104.52v13.34a17.58,17.58,0,0,0,1.39,2.56V102A17.07,17.07,0,0,0,122,104.52Z" transform="translate(-30.14 -28.81)"></path><path class="cls-52" d="M135.93,94.55v33.27c.46,0,.92.07,1.39.07V94.48C136.85,94.48,136.39,94.52,135.93,94.55Z" transform="translate(-30.14 -28.81)"></path><path class="cls-53" d="M127.58,97.64a15.12,15.12,0,0,0-1.39,1.12v24.85a15.22,15.22,0,0,0,1.39,1.13" transform="translate(-30.14 -28.81)"></path><path class="cls-54" d="M124.8,100.17v22a15.31,15.31,0,0,0,1.39,1.4V98.76A15.42,15.42,0,0,0,124.8,100.17Z" transform="translate(-30.14 -28.81)"></path><path class="cls-55" d="M123.4,102v18.46a17.24,17.24,0,0,0,1.4,1.79v-22A16.24,16.24,0,0,0,123.4,102Z" transform="translate(-30.14 -28.81)"></path><path class="cls-56" d="M148.46,98.76v24.85a15.31,15.31,0,0,0,1.39-1.4v-22A15.42,15.42,0,0,0,148.46,98.76Z" transform="translate(-30.14 -28.81)"></path><path class="cls-57" d="M147.07,97.64v27.1a16.72,16.72,0,0,0,1.39-1.13V98.76A16.6,16.6,0,0,0,147.07,97.64Z" transform="translate(-30.14 -28.81)"></path><path class="cls-58" d="M149.85,100.17v22a17.14,17.14,0,0,0,1.39-1.79V102A16.15,16.15,0,0,0,149.85,100.17Z" transform="translate(-30.14 -28.81)"></path><path class="cls-59" d="M151.24,102v18.46a16.73,16.73,0,0,0,1.4-2.56V104.52A16.27,16.27,0,0,0,151.24,102Z" transform="translate(-30.14 -28.81)"></path><path class="cls-60" d="M152.64,117.86a16.7,16.7,0,0,0,0-13.34Z" transform="translate(-30.14 -28.81)"></path><path class="cls-61" d="M145.68,96.74v28.9c.48-.28.94-.58,1.39-.9V97.64C146.62,97.32,146.16,97,145.68,96.74Z" transform="translate(-30.14 -28.81)"></path><path class="cls-62" d="M141.5,95v32.32c.47-.13.94-.27,1.39-.43V95.46A13.16,13.16,0,0,0,141.5,95Z" transform="translate(-30.14 -28.81)"></path><path class="cls-63" d="M138.72,94.55v33.27c.47,0,.93-.1,1.39-.18V94.74C139.65,94.66,139.19,94.59,138.72,94.55Z" transform="translate(-30.14 -28.81)"></path><path class="cls-64" d="M140.11,94.74v32.9c.47-.08.93-.18,1.39-.29V95A13.19,13.19,0,0,0,140.11,94.74Z" transform="translate(-30.14 -28.81)"></path><path class="cls-65" d="M144.28,96v30.34c.48-.22.95-.46,1.4-.72V96.74C145.23,96.48,144.76,96.24,144.28,96Z" transform="translate(-30.14 -28.81)"></path><path class="cls-66" d="M137.32,94.48v33.41c.47,0,.94,0,1.4-.07V94.55C138.26,94.52,137.79,94.48,137.32,94.48Z" transform="translate(-30.14 -28.81)"></path><path class="cls-67" d="M142.89,95.46v31.46c.48-.17.94-.35,1.39-.56V96A13,13,0,0,0,142.89,95.46Z" transform="translate(-30.14 -28.81)"></path><path class="cls-40" d="M137.32,127.89A16.71,16.71,0,1,1,154,111.19,16.72,16.72,0,0,1,137.32,127.89Zm0-33a16.29,16.29,0,1,0,16.3,16.29A16.31,16.31,0,0,0,137.32,94.9Z" transform="translate(-30.14 -28.81)"></path><path class="cls-68" d="M137.32,92a19.2,19.2,0,1,0,19.2,19.2A19.22,19.22,0,0,0,137.32,92Zm0,35.9A16.71,16.71,0,1,1,154,111.19,16.7,16.7,0,0,1,137.32,127.89Z" transform="translate(-30.14 -28.81)"></path></g></g></svg> 